<?xml version="1.0" standalone="no"?><!DOCTYPE svg PUBLIC "-//W3C//DTD SVG 1.1//EN" "http://www.w3.org/Graphics/SVG/1.1/DTD/svg11.dtd"><svg t="1756281446726" class="icon" viewBox="0 0 1024 1024" version="1.1" xmlns="http://www.w3.org/2000/svg" p-id="51198" xmlns:xlink="http://www.w3.org/1999/xlink" width="24" height="24"><path d="M 561.504 668.038 h -99.008 l -30.2709 66.5888 a 19.5051 19.5051 0 1 1 -35.4987 -16.1493 L 494.251 503.925 a 19.5051 19.5051 0 0 1 35.4987 0 l 97.5243 214.553 a 19.5051 19.5051 0 1 1 -35.4987 16.1493 l -30.272 -66.5888 Z m -17.7493 -39.0101 L 512 559.123 l -31.7547 69.9051 h 63.5093 Z M 316.951 102.4 H 824.075 a 19.5051 19.5051 0 1 1 0 39.0091 H 316.953 a 97.5243 97.5243 0 0 0 0 195.049 H 824.075 a 19.5051 19.5051 0 0 1 19.5051 19.504 v 546.133 A 19.5051 19.5051 0 0 1 824.076 921.6 H 316.953 a 136.533 136.533 0 0 1 -136.533 -136.533 V 238.933 a 136.533 136.533 0 0 1 136.533 -136.533 Z m -97.5243 232.107 V 785.067 a 97.5243 97.5243 0 0 0 97.5243 97.5243 h 487.619 V 375.467 H 316.953 a 136.143 136.143 0 0 1 -97.5243 -40.96 Z m 97.5243 -76.0683 a 19.5051 19.5051 0 0 1 0 -39.0101 H 785.067 a 19.5051 19.5051 0 1 1 0 39.0101 H 316.953 Z" fill="#9333ea" p-id="51199"></path></svg>